<svg width="571" height="631" viewBox="0 0 571 631" fill="none" xmlns="http://www.w3.org/2000/svg">
<path d="M123.278 0.00545467C137.567 -0.0492501 157.605 0.31012 182.73 0.966392C232.982 2.27897 303.611 4.77904 389.358 7.52889C475.33 10.2861 529.996 59.0583 554.873 125.416C579.738 191.743 574.844 275.631 541.797 348.734C515.315 407.317 460.576 440.468 403.001 458.119C345.667 475.696 285.442 477.927 247.281 474.567C244.582 497.335 238.31 550.018 234.338 582.588C230.3 615.7 202.37 628.005 188.916 630.023L188.879 630.028H42.8423C21.5041 630.028 10.0628 622.131 4.50535 612.146C-1.0267 602.207 -0.661786 590.315 1.35789 582.405C1.84941 580.48 3.29731 571.19 5.46824 556.281C7.63596 541.393 10.5191 520.944 13.8784 496.741C20.597 448.336 29.2212 384.92 37.8462 320.962C55.0964 193.043 72.3457 62.9643 74.3452 46.4683C76.3506 29.9241 80.1172 19.7152 84.4878 13.1275C88.8686 6.5247 93.8316 3.59829 98.1294 1.57577C98.7354 1.29076 99.7341 1.06704 101.057 0.881431C102.397 0.693417 104.124 0.537566 106.222 0.412681C110.42 0.162842 116.134 0.0328092 123.278 0.00545467ZM175.326 78.0289C170.073 78.1983 162.119 80.0998 155.266 85.2545C148.394 90.4235 142.651 98.8489 141.842 111.999C140.245 137.96 127.526 222.706 121.355 261.905C120.759 263.551 120.366 266.055 121.186 268.242C121.605 269.358 122.34 270.388 123.512 271.161C124.68 271.93 126.251 272.425 128.317 272.528C136.336 272.929 189.358 272.695 214.845 272.529C218.269 272.506 221.828 269.939 225.402 265.73C228.999 261.493 232.712 255.471 236.434 248.282C243.88 233.899 251.405 214.753 258.125 195.632C264.848 176.507 270.773 157.389 275.016 143.053C277.138 135.886 278.84 129.912 280.011 125.731C280.541 123.842 280.961 122.317 281.263 121.214C281.279 121.293 281.295 121.373 281.311 121.456C281.612 122.974 282.057 125.197 282.629 128.016C283.774 133.655 285.431 141.683 287.478 151.235C291.572 170.34 297.23 195.55 303.482 219.965C309.732 244.374 316.583 268.012 323.066 283.96C326.301 291.919 329.469 298.025 332.458 301.343C333.948 302.997 335.466 304.039 336.997 304.179C338.573 304.324 339.996 303.501 341.243 301.828C350.747 289.072 354.887 282.549 357.375 279.004C358.625 277.223 359.435 276.229 360.28 275.551C361.113 274.883 362.011 274.5 363.499 274.004C364.928 273.527 366.993 273.279 369.695 273.185C372.388 273.092 375.67 273.154 379.513 273.279C387.191 273.529 397.081 274.029 408.841 274.029C414.628 274.029 418.784 275.598 421.454 277.892C424.119 280.184 425.336 283.225 425.217 286.259C424.98 292.306 419.386 298.529 408.841 298.529C398.112 298.529 394.5 298.053 392.453 297.817C391.413 297.697 390.729 297.632 389.73 297.726C388.752 297.819 387.476 298.064 385.238 298.54C377.934 300.091 372.677 303.185 368.605 307.35C364.543 311.505 361.681 316.707 359.131 322.436C354.014 333.937 350.147 347.534 340.451 359.717C339.302 361.161 338.164 361.638 337.035 361.466C335.851 361.287 334.522 360.379 333.066 358.681C330.165 355.298 327.028 349.096 323.783 340.884C317.304 324.488 310.482 300.311 304.264 275.345C298.048 250.386 292.44 224.658 288.386 205.17C286.359 195.426 284.721 187.241 283.589 181.494C283.024 178.62 282.584 176.355 282.287 174.809C282.138 174.036 282.024 173.443 281.948 173.043C281.91 172.843 281.881 172.691 281.862 172.589C281.852 172.539 281.845 172.5 281.84 172.474C281.838 172.462 281.836 172.452 281.834 172.446C281.834 172.443 281.834 172.44 281.833 172.438C281.832 172.437 281.809 172.441 281.341 172.529L281.832 172.436L280.867 172.373L281.341 172.529C280.866 172.373 280.866 172.374 280.866 172.375C280.865 172.375 280.865 172.377 280.865 172.379C280.863 172.382 280.861 172.389 280.859 172.396C280.854 172.411 280.846 172.435 280.836 172.464C280.816 172.525 280.787 172.616 280.748 172.735C280.669 172.974 280.551 173.329 280.397 173.792C280.089 174.717 279.633 176.076 279.048 177.804C277.878 181.262 276.185 186.201 274.096 192.129C269.918 203.984 264.155 219.789 257.815 235.592C251.473 251.399 244.56 267.19 238.082 279.023C234.842 284.942 231.722 289.85 228.848 293.272C227.411 294.983 226.048 296.306 224.777 297.199C223.502 298.093 222.356 298.529 221.341 298.529H124.341C122.754 298.529 120.35 299.027 118.229 300.52C116.089 302.026 114.26 304.53 113.844 308.476C113.045 316.071 93.5164 461.937 83.8481 533.949C83.2577 537.576 83.1231 542.995 84.6821 547.432C85.4639 549.657 86.6827 551.667 88.5141 553.068C90.3541 554.475 92.7698 555.235 95.8745 555.028C107.846 554.23 133.821 554.695 145.327 555.029L145.388 555.031L145.447 555.017C148.595 554.336 153.417 552.483 157.712 549.123C162.014 545.758 165.812 540.861 166.836 534.104C168.831 520.939 177.938 438.19 182.29 398.029H281.341C284.559 398.029 314.002 400.281 349.938 393.207C385.873 386.132 428.381 369.719 457.735 332.337C487.054 294.999 499.465 253.517 499.966 217.098C500.467 180.697 489.068 149.29 470.682 132.163C466.124 127.916 462.033 123.966 458.239 120.297C454.446 116.63 450.948 113.24 447.58 110.123C440.843 103.887 434.609 98.7183 427.534 94.5357C413.368 86.162 395.896 81.7803 364.362 80.5289C313.95 78.5284 217.34 78.0289 175.341 78.0289H175.326Z" fill="url(#paint0_linear_0_1)"/>
<defs>
<linearGradient id="paint0_linear_0_1" x1="25.5" y1="276" x2="659" y2="281" gradientUnits="userSpaceOnUse">
<stop stop-color="#3E81FF"/>
<stop offset="1" stop-color="#3CBFFC"/>
</linearGradient>
</defs>
</svg>
